<svg xmlns="http://www.w3.org/2000/svg" viewBox="0 0 48 48">
  <rect width="48" height="48" rx="10" fill="#ffffff"/>
  <rect x="0.5" y="0.5" width="47" height="47" rx="9.5" fill="none" stroke="#e2e8f0" stroke-width="1"/>
  <path d="M33.2 24.3c0-.8-.1-1.6-.2-2.3H24v4.4h5.2c-.2 1.2-1 2.3-2 3v2.5h3.2c1.9-1.7 3-4.3 3-7.6z" fill="#4285F4"/>
  <path d="M24 34c2.7 0 5-0.9 6.6-2.4l-3.2-2.5c-.9.6-2 1-3.4 1-2.6 0-4.8-1.8-5.6-4.1h-3.3v2.6C16.5 31.6 20 34 24 34z" fill="#34A853"/>
  <path d="M18.4 26c-.2-.6-.3-1.3-.3-2s.1-1.4.3-2v-2.6h-3.3C14.4 20.8 14 22.4 14 24s.4 3.2 1.1 4.6l3.3-2.6z" fill="#FBBC05"/>
  <path d="M24 17.9c1.5 0 2.8.5 3.9 1.5l2.9-2.9C29 15 26.7 14 24 14c-4 0-7.5 2.4-9.1 5.4l3.3 2.6c.8-2.3 3-4.1 5.8-4.1z" fill="#EA4335"/>
</svg>
